<svg id="Capa_1" enable-background="new 0 0 512 512" height="512" viewBox="0 0 512 512" width="512" xmlns="http://www.w3.org/2000/svg"><path d="m11.046 256-10.572-15.713c4.026-66.49 33.43-126.13 78.654-169.361l23.464-.08 2.082-21.354c38.222-28.055 84.519-45.755 134.756-48.964l16.57 21.563 16.57-21.564c50.123 3.202 96.324 20.829 134.496 48.774l2.219 21.441 23.588.183c45.223 43.231 74.627 102.871 78.653 169.36l-10.572 15.715 10.462 17.426c-4.423 65.801-33.71 124.789-78.544 167.648l-23.209-.135-2.338 21.569c-38.221 28.055-84.518 45.755-134.755 48.964l-16.57-10.518-16.57 10.518c-50.123-3.202-96.324-20.829-134.496-48.774l-2.219-21.441-23.588-.183c-44.834-42.86-74.12-101.848-78.543-167.648z" fill="#ff9e28"/><path d="m432.873 70.926-23.588-.183-2.219-21.441c-38.172-27.945-84.373-45.572-134.496-48.774l-16.57 21.563v478.863l16.57 10.518c50.237-3.209 96.533-20.909 134.755-48.964l2.338-21.569 23.209.135c44.834-42.859 74.121-101.847 78.544-167.648l-10.462-17.426 10.571-15.714c-4.026-66.489-33.43-126.129-78.652-169.36z" fill="#f37e15"/><path d="m432.87 70.929c-8.034-7.68-16.575-14.831-25.554-21.422-52.041 50.382-83.171 118.582-87.131 190.781h-47.616v-239.74c-5.48-.35-11.001-.548-16.569-.548s-11.089.198-16.568.548v239.739h-47.616c-3.96-72.199-35.09-140.399-87.131-190.781-8.979 6.591-17.52 13.742-25.554 21.422 47.105 44.38 75.484 105.012 79.476 169.359h-158.113c-.315 5.199-.494 10.435-.494 15.713 0 5.858.215 11.665.602 17.424h157.889c-4.385 63.709-32.675 123.661-79.362 167.647 8.034 7.68 16.575 14.832 25.555 21.423 51.628-49.983 82.661-117.506 87.015-189.07h47.731v238.027c5.48.35 11 .548 16.568.548s11.089-.198 16.568-.548v-238.027h47.734c4.355 71.563 35.388 139.087 87.015 189.07 8.979-6.591 17.52-13.742 25.555-21.423-46.687-43.986-74.976-103.937-79.362-167.647h157.889c.388-5.759.603-11.566.603-17.424 0-5.278-.179-10.514-.494-15.712h-158.113c3.992-64.347 32.371-124.979 79.477-169.359z" fill="#efd838"/><path d="m353.393 240.288c3.992-64.347 32.371-124.979 79.476-169.359-8.034-7.68-16.575-14.831-25.554-21.422-52.041 50.382-83.171 118.582-87.131 190.781h-47.616v-239.74c-5.479-.35-11-.548-16.568-.548v512c5.568 0 11.089-.198 16.568-.548v-238.028h47.732c4.355 71.563 35.388 139.087 87.015 189.07 8.979-6.591 17.52-13.742 25.555-21.423-46.687-43.986-74.976-103.937-79.362-167.647h157.889c.388-5.759.603-11.566.603-17.424 0-5.278-.179-10.514-.494-15.712z" fill="#fcc216"/></svg>