<?xml version="1.0" encoding="utf-8"?>
<!-- Generator: Adobe Illustrator 16.0.0, SVG Export Plug-In . SVG Version: 6.00 Build 0)  -->
<!DOCTYPE svg PUBLIC "-//W3C//DTD SVG 1.0//EN" "http://www.w3.org/TR/2001/REC-SVG-20010904/DTD/svg10.dtd">
<svg version="1.0" id="Layer_1" xmlns="http://www.w3.org/2000/svg" xmlns:xlink="http://www.w3.org/1999/xlink" x="0px" y="0px"
	 width="800px" height="800px" viewBox="0 0 800 800" enable-background="new 0 0 800 800" xml:space="preserve">
<g>
	<g id="Group-5" transform="translate(135.511192, 9.036594)">
		<path id="Fill-1" fill="#0078C1" d="M628.594,324.966c-8.085,0-14.652-6.688-14.652-14.931c0-8.242,6.567-14.921,14.652-14.921
			c8.104,0,14.671,6.679,14.671,14.921C643.265,318.279,636.698,324.966,628.594,324.966 M628.594,292.705
			c-9.555,0-17.293,7.756-17.293,17.331c0,9.567,7.738,17.332,17.293,17.332s17.303-7.764,17.303-17.332
			C645.897,300.46,638.149,292.705,628.594,292.705"/>
		<path id="Fill-3" fill="#0078C1" d="M624.75,309.066v-6.894h4.16c3.529,0,5.131,1.043,5.131,3.458
			c0,2.405-1.602,3.436-5.131,3.436H624.75 M636.615,305.708c0-3.861-2.245-5.615-6.577-5.615h-7.696v19.889h2.408v-8.82h4.16
			l5.609,8.82h2.889l-5.934-8.82C634.66,310.654,636.615,308.476,636.615,305.708"/>
	</g>
	<g id="Group-17" transform="translate(0.000000, 0.746279)">
		<path id="Fill-6" fill="#0078C1" d="M92.695,435.436c0,16.428-5.495,24.282-24.633,24.282H56.135v-46.007h12.706
			C86.231,413.712,92.695,419.866,92.695,435.436 M118.331,437.144c0-19.135-15.565-26.008-34.464-26.437v-0.726
			c16.061-1.271,29.267-8.045,29.267-24.315c0-18.07-14.934-21.453-31.638-21.453c-20.087,0-43.668,0.553-63.706,0v5.054
			c4.261-0.285,14.522,0.284,14.522,5.611v79.411c0,5.148-10.57,6.007-14.522,6.007v4.918c19.415-0.579,42.36,0,61.804,0
			C100.072,465.215,118.331,458.142,118.331,437.144 M88.624,388.695c0,12.665-5.545,19.72-20.1,19.72H56.135v-38.863
			c1.584-0.144,6.861-0.284,8.437-0.284h4.269C83.698,369.268,88.624,375.889,88.624,388.695"/>
		<path id="Fill-8" fill="#0078C1" d="M247.905,465.049c-8.994,0-17.984-0.123-26.965,0.157v-5.059
			c4.097,0,15.429-0.28,15.429-5.866V380.3h-0.305l-41.296,86.053h-4.258L150.324,380.3h-0.317v73.981
			c0,5.743,11.831,5.866,16.081,5.866l0.165,5.059c-11.209-0.454-26.527-0.734-37.575,0v-5.059c4.275,0,14.527-0.412,14.527-5.866
			v-79.292c0-5.297-10.566-5.726-14.527-5.726l-0.14-5.05c12.772,0.553,26.506,0.553,39.283,0l34.36,72.139l34.984-71.99
			c12.315,0.536,25.566,0.404,37.868-0.148v5.05c-4.104,0-14.822,0.288-14.822,5.726v79.292c0,5.586,10.569,5.866,14.822,5.866
			v5.059C266.041,464.926,256.898,465.049,247.905,465.049"/>
		<path id="Fill-10" fill="#0078C1" d="M396.413,414.528c0-33.366-20.371-52.076-57.092-52.076
			c-36.729,0-57.257,18.561-57.257,52.076c0,33.523,20.354,52.221,57.257,52.221C376.194,466.749,396.413,448.052,396.413,414.528
			 M369.738,414.528c0,19.729-1.906,47.188-30.417,47.188c-28.532,0-30.586-27.459-30.586-47.188
			c0-19.691,2.054-47.034,30.586-47.034C367.684,367.494,369.738,394.961,369.738,414.528"/>
		<g id="Group-14" transform="translate(81.306715, 0.000000)">
			<g id="Clip-13">
			</g>
			<defs>
				<filter id="Adobe_OpacityMaskFilter" filterUnits="userSpaceOnUse" x="376.82" y="255.767" width="291.333" height="291.609">
					<feColorMatrix  type="matrix" values="1 0 0 0 0  0 1 0 0 0  0 0 1 0 0  0 0 0 1 0"/>
				</filter>
			</defs>
			<mask maskUnits="userSpaceOnUse" x="376.82" y="255.767" width="291.333" height="291.609" id="mask-2_1_">
				<g filter="url(#Adobe_OpacityMaskFilter)">
					<polygon id="path-1_1_" fill="#FFFFFF" points="376.82,255.767 668.153,255.767 668.153,547.377 376.82,547.377 					"/>
				</g>
			</mask>
			<path id="Fill-12" mask="url(#mask-2_1_)" fill="#ED3124" d="M522.475,255.767c-80.405,0-145.654,65.298-145.654,145.815
				c0,80.529,65.249,145.794,145.654,145.794c80.472,0,145.679-65.265,145.679-145.794
				C668.153,321.066,602.946,255.767,522.475,255.767"/>
		</g>
		<path id="Fill-15" fill="#FEFEFE" d="M599.351,357.077l-25.297-33.004c-1.023-1.353-2.657-2.236-4.489-2.236
			c-1.774,0-3.366,0.833-4.398,2.129l-30.099,37.979v59.522l29.926-38.408c1.064-1.348,2.724-2.218,4.571-2.218
			c1.882,0,3.548,0.89,4.621,2.269l25.413,33.268c0.957,1.278,2.482,2.104,4.199,2.104c1.708,0,3.234-0.826,4.199-2.104
			l25.413-33.268c1.064-1.378,2.731-2.269,4.613-2.269c1.856,0,3.506,0.87,4.578,2.218l29.918,38.408v-59.522l-30.099-37.979
			c-1.032-1.296-2.624-2.129-4.397-2.129c-1.841,0-3.457,0.884-4.489,2.236l-25.289,33.004c-1.031,1.328-2.641,2.183-4.447,2.183
			C601.983,359.26,600.373,358.405,599.351,357.077L599.351,357.077z M535.067,465.132H672.52v-43.665H535.067V465.132z"/>
	</g>
</g>
</svg>
