<svg id="Capa_1" enable-background="new 0 0 512 512" height="512" viewBox="0 0 512 512" width="512" xmlns="http://www.w3.org/2000/svg"><g><g><path d="m158 61h-15v-15c0-8.284-6.716-15-15-15s-15 6.716-15 15v15h-15c-8.284 0-15 6.716-15 15s6.716 15 15 15h15v35c0 8.284 6.716 15 15 15s15-6.716 15-15v-35h15c8.284 0 15-6.716 15-15s-6.716-15-15-15z" fill="#38336b"/><path d="m143 126v-35h15c8.284 0 15-6.716 15-15s-6.716-15-15-15h-15v-15c0-8.284-6.716-15-15-15v110c8.284 0 15-6.716 15-15z" fill="#002659"/><path d="m158 201h-60c-5.015 0-9.699-2.507-12.48-6.68l-16.133-24.198c-4.179-6.268-6.387-13.562-6.387-21.095 0-20.968 17.059-38.027 38.028-38.027h53.944c20.969 0 38.028 17.059 38.028 38.027 0 7.532-2.208 14.827-6.387 21.095l-16.133 24.198c-2.781 4.173-7.465 6.68-12.48 6.68z" fill="#453d81"/><path d="m154.972 111h-26.972v90h30c5.015 0 9.699-2.507 12.48-6.68l16.133-24.198c4.178-6.268 6.387-13.562 6.387-21.095 0-20.968-17.059-38.027-38.028-38.027z" fill="#38336b"/><path d="m233.848 421h-211.696l12.824-22.442c24.876-43.533 38.024-93.043 38.024-143.18v-24.378h110v24.378c0 50.137 13.148 99.647 38.023 143.18z" fill="#38336b"/><path d="m128 231v190h105.848l-12.824-22.442c-24.876-43.533-38.024-93.043-38.024-143.18v-24.378z" fill="#002659"/><path d="m241 481h-226c-8.284 0-15-6.716-15-15v-15c0-22.091 17.909-40 40-40h176c22.091 0 40 17.909 40 40v15c0 8.284-6.716 15-15 15z" fill="#5e54ac"/><path d="m216 411h-88v70h113c8.284 0 15-6.716 15-15v-15c0-22.091-17.909-40-40-40z" fill="#453d81"/><path d="m193 246h-130c-16.569 0-30-13.431-30-30 0-16.569 13.431-30 30-30h130c16.569 0 30 13.431 30 30 0 16.569-13.431 30-30 30z" fill="#5e54ac"/><path d="m193 186h-65v60h65c16.568 0 30-13.431 30-30 0-16.569-13.431-30-30-30z" fill="#453d81"/></g><g><path d="m384 81c-8.284 0-15-6.716-15-15v-20c0-8.284 6.716-15 15-15s15 6.716 15 15v20c0 8.284-6.716 15-15 15z" fill="#e2dff4"/><path d="m399 66v-20c0-8.284-6.716-15-15-15v50c8.284 0 15-6.716 15-15z" fill="#bebcdd"/><path d="m419 141h-70c-8.284 0-15-6.716-15-15v-6.921c0-29.141 17.307-55.388 44.091-66.866 3.773-1.617 8.044-1.617 11.817 0 26.785 11.478 44.092 37.725 44.092 66.866v6.921c0 8.284-6.716 15-15 15z" fill="#bebcdd"/><path d="m419 141c8.284 0 15-6.716 15-15v-6.921c0-29.141-17.307-55.388-44.091-66.866-1.887-.809-3.898-1.213-5.909-1.213v90z" fill="#9d98ce"/><path d="m452.817 121.281c-1.74-3.251-5.129-5.281-8.817-5.281h-120c-3.688 0-7.077 2.03-8.817 5.281-1.74 3.252-1.549 7.197.497 10.266l3.359 5.038c9.787 14.682 14.961 31.769 14.961 49.415v10h100v-10c0-17.646 5.174-34.733 14.961-49.415l3.359-5.038c2.046-3.068 2.237-7.014.497-10.266z" fill="#e2dff4"/><path d="m444 116h-60v80h50v-10c0-17.646 5.174-34.733 14.961-49.415l3.359-5.038c2.046-3.068 2.237-7.014.497-10.266-1.74-3.251-5.129-5.281-8.817-5.281z" fill="#bebcdd"/><g><path d="m489.848 421h-211.696l12.824-22.442c24.876-43.533 38.024-93.043 38.024-143.18v-24.378h110v24.378c0 50.137 13.148 99.647 38.023 143.18z" fill="#e2dff4"/><path d="m384 231v190h105.848l-12.824-22.442c-24.876-43.533-38.024-93.043-38.024-143.18v-24.378z" fill="#bebcdd"/><path d="m497 481h-226c-8.284 0-15-6.716-15-15v-15c0-22.091 17.909-40 40-40h176c22.091 0 40 17.909 40 40v15c0 8.284-6.716 15-15 15z" fill="#f9f9f9"/><path d="m472 411h-88v70h113c8.284 0 15-6.716 15-15v-15c0-22.091-17.909-40-40-40z" fill="#e2dff4"/><path d="m449 246h-130c-16.569 0-30-13.431-30-30 0-16.569 13.431-30 30-30h130c16.569 0 30 13.431 30 30 0 16.569-13.431 30-30 30z" fill="#f9f9f9"/><path d="m449 186h-65v60h65c16.568 0 30-13.431 30-30 0-16.569-13.431-30-30-30z" fill="#e2dff4"/></g></g></g></svg>