<svg id="Capa_1" enable-background="new 0 0 512 512" height="512" viewBox="0 0 512 512" width="512" xmlns="http://www.w3.org/2000/svg"><g><path d="m391 331h90v166h-90z" fill="#fd697f"/><path d="m436 331h45v166h-45z" fill="#e6455d"/><path d="m316 331h-45v166h45 45v-166z" fill="#8adb53"/><path d="m316 331h45v166h-45z" fill="#4fc16e"/><path d="m196 374.228-45 22.5v100.272h45 45v-145.272z" fill="#fd697f"/><path d="m241 351.728-45 22.5v122.772h45z" fill="#e6455d"/><g><path d="m61 121h30v45h-30z" fill="#60474f"/></g><g><path d="m61 256h30v45h-30z" fill="#60474f"/></g><path d="m76 121h15v45h-15z" fill="#3f303a"/><path d="m76 256h15v45h-15z" fill="#3f303a"/><path d="m31 391h90v106h-90z" fill="#8adb53"/><path d="m76 391h45v106h-45z" fill="#4fc16e"/><g><path d="m435.473 195.238-12.071 27.451 24.313 10.686-75.26 37.625h-116.455-7.09l-116.455 60h-116.455v30h123.545l116.455-60h123.545l81.579-40.783-6.037 25.842 29.209 6.826 16.157-69.097z" fill="#fd697f"/><path d="m461.124 260.217-6.037 25.842 29.209 6.826 16.157-69.097-64.98-28.55-12.071 27.451 24.313 10.686-75.26 37.625h-116.455v30h123.545z" fill="#e6455d"/><path d="m256 482h-256v30h256 256v-30z" fill="#60474f"/><path d="m256 482h256v30h-256z" fill="#3f303a"/></g><g><path d="m31 151v120h90v-120z" fill="#8adb53"/></g><path d="m76 151h45v120h-45z" fill="#4fc16e"/><g><path d="m181 61h30v45h-30z" fill="#60474f"/></g><g><path d="m181 196h30v45h-30z" fill="#60474f"/></g><path d="m196 61h15v45h-15z" fill="#3f303a"/><path d="m196 196h15v45h-15z" fill="#3f303a"/><g><path d="m151 91v120h90v-120z" fill="#fd697f"/></g><path d="m196 91h45v120h-45z" fill="#e6455d"/><g><path d="m421 0h30v45h-30z" fill="#60474f"/></g><g><path d="m421 136h30v45h-30z" fill="#60474f"/></g><path d="m436 0h15v45h-15z" fill="#3f303a"/><path d="m436 136h15v45h-15z" fill="#3f303a"/><g><path d="m391 30v121h90v-121z" fill="#fd697f"/></g><path d="m436 30h45v121h-45z" fill="#e6455d"/><g><path d="m301 31h30v45h-30z" fill="#60474f"/></g><g><path d="m301 166h30v45h-30z" fill="#60474f"/></g><path d="m316 31h15v45h-15z" fill="#3f303a"/><path d="m316 166h15v45h-15z" fill="#3f303a"/><g><path d="m271 61v120h90v-120z" fill="#8adb53"/></g><path d="m316 61h45v120h-45z" fill="#4fc16e"/></g></svg>